<?xml version="1.0" encoding="UTF-8"?>
<svg width="538" height="850" xmlns="http://www.w3.org/2000/svg" viewBox="0 0 538 850">
    <rect width="538" height="850" fill="black" />
    <path d="M 277.99998360019237 226.00000982237023 L 279.88333675632975 226.17775097567417 L 282.0101661835645 226.30523959546298 L 284.3576778761047 226.38873319130246 L 286.9039985759352 226.43424654332742 L 289.62817577281703 226.4475517022412 L 292.5101777042881 226.4341779893167 L 295.5308933556624 226.39941199639514 L 298.672132460031 226.34829758588708 L 301.91662549826117 226.2856358907718 L 305.24802369899635 226.21598531459745 L 308.650899038657 226.14366153148114 L 312.1107442414397 226.07273748610888 L 315.61397277931775 226.00704339373576 L 319.14791887204086 225.95016674018547 L 322.70083748713546 225.90545228185098 L 326.2619043399041 225.8760020456938 L 329.82121589342603 225.8646753292446 L 333.369789358557 225.8740887006029 L 336.8995626939293 225.90661599843708 L 340.4033946059515 225.96438833198454 L 343.875064548809 226.04929408105136 L 347.3092727244634 226.16297889601287 L 350.70164008265306 226.30684569781312 L 354.04870832089244 226.48205467796504 L 357.34793988447296 226.68952329855045 L 360.5977179664625 226.92992629222042 L 363.7973465077051 227.20369566219443 L 366.94705019682135 227.5110206822612 L 370.04797447020866 227.85184789677825 L 373.1021855120407 228.22588112067214 L 376.11267025426775 228.6325814394381 L 379.0833363766166 229.07116720914053 L 382.01901230659007 229.54061405641247 L 384.92544721946814 230.0396548784561 L 387.8093110383072 230.5667798430426 L 390.67819443393955 231.12023638851164 L 393.5406088249747 231.69802922377224 L 396.4059790575656 232.2979238760333 L 399.2840565697004 232.91773109914527 L 402.18310477026984 233.55618632473838 L 405.10928640840035 234.2132465720199 L 408.06665508028306 234.890094563968 L 411.05715522917285 235.58913872733157 L 414.0806221453885 236.31401319262977 L 417.1347819663134 237.06957779415268 L 420.2152516763948 237.86191806996104 L 423.3155391071436 238.6983452618857 L 426.42704293713547 239.58739631552874 L 429.5390526920098 240.5388338802625 L 432.6387487444703 241.56364630923028 L 435.71120231428444 242.67404765934546 L 438.73937546828375 243.8834776912924 L 441.70426186495604 245.20646950062692 L 444.5869042263551 246.65675210535758 L 447.37084066106553 248.24494970334428 L 450.0423905045765 249.97831284224915 L 452.59065433170025 251.86071840785567 L 455.00751395657255 253.89266962406873 L 457.28763243265286 256.0712960529151 L 459.4284540527235 258.39035359454294 L 461.430204348891 260.84022448722203 L 463.29589009258467 263.4079173073438 L 465.0312992945079 266.0770669695097 L 466.64484023308694 268.8282203748779 L 468.1458901891806 271.6417666258523 L 469.54322899806647 274.5007167302267 L 470.84490638295256 277.39093902144145 L 472.05824195497553 280.3011591585824 L 473.1898252132019 283.22296012638185 L 474.2455155446281 286.1507822352181 L 475.23044222417946 289.0819231211156 L 476.1490044147112 292.01653774574487 L 477.00487116700793 294.9576383964222 L 477.80100632880243 297.9109233692609 L 478.5399494167622 300.88284521487657 L 479.22410174244266 303.87864284885194 L 479.8557530728822 306.9021581880778 L 480.4370816306005 309.9558361507509 L 480.9701540936004 313.04072465637506 L 481.4569255953661 316.15647462576027 L 481.89923972486463 319.3013399810232 L 482.2988285265448 322.472177645587 L 482.657312500338 325.66444754418137 L 482.97620060165747 328.8722126028426 L 483.2568937134659 332.08822385328955 L 483.50072827783225 335.30498989282415 L 483.70902444074505 338.5159569693436 L 483.88309103459085 341.715631107651 L 484.02422557817084 344.8995781098799 L 484.1337142767025 348.0644235554946 L 484.2128320218175 351.2078528012898 L 484.2628423915639 354.32861098139074 L 484.2849976504041 357.4265030072529 L 484.2805387492162 360.5023935676627 L 484.2506953252936 363.55820712873674 L 484.1966857023449 366.59692793392213 L 484.119716890494 369.62260000399664 L 484.02098458628024 372.6403271370686 L 483.90167406302726 375.6562214534861 L 483.762974004871 378.67660391721785 L 483.6060942506595 381.7069789028555 L 483.4322680199369 384.7519055543756 L 483.2427519131881 387.81499777097434 L 483.0388259118397 390.8989242070687 L 482.82179337825875 394.0054082722957 L 482.5929810557534 397.1352281315124 L 482.3537390685731 400.28821670479624 L 482.1054409219084 403.46326166744507 L 481.8494835018907 406.6583054499767 L 481.5872870755923 409.87034523812923 L 481.3202952910272 413.0954329728612 L 481.04997517714975 416.3286753503511 L 480.7778124833897 419.5642622871457 L 480.5052114024501 422.7960793922577 L 480.2333352450345 426.01868109248215 L 479.96308045369557 429.22744935035803 L 479.69507657834674 432.41859381373496 L 479.4296862762625 435.5891518157725 L 479.1670053120788 438.73698837494135 L 478.90686255779127 441.8607961950221 L 478.6488199927577 444.96009566510594 L 478.3921727036965 448.03523485959454 L 478.1359488846868 451.0873895381999 L 477.8789098371689 454.11856314594445 L 477.6195499699442 457.1315868131613 L 477.3560967991748 460.1301193554937 L 477.08651094838405 463.1186472738955 L 476.80849177771586 466.1024687119086 L 476.5196391457111 469.0872324538404 L 476.217758929087 472.07806722971696 L 475.90092400035815 475.0794079363176 L 475.56747438695675 478.0949951836987 L 475.2160172712335 481.12787529519454 L 474.84542699045664 484.18040030741645 L 474.4548450368127 487.2542279702532 L 474.0436800574053 490.35032174687086 L 473.61160785425716 493.468950813713 L 473.15857138430835 496.60969006050044 L 472.68478075941687 499.77142009023174 L 472.19071324635877 502.9523272191823 L 471.677113266828 506.14990347690525 L 471.1449923974363 509.36094660623075 L 470.5956293697137 512.5815600632673 L 470.03057007010847 515.8071530173994 L 469.45161080540606 519.0324818943498 L 468.86057607087383 522.2522020596801 L 468.2590633383238 525.4615013742816 L 467.64841524230246 528.6561692412748 L 467.0297195797381 531.8325966068836 L 466.403809309942 534.9877759604365 L 465.7712625546064 538.1193013343644 L 465.1324025978065 541.225368304203 L 464.48729788599906 544.3047739885905 L 463.835762028023 547.3569170492693 L 463.17735379509963 550.3817976910858 L 462.5113771208321 553.3800176619893 L 461.8368811012056 556.352780253033 L 461.15265999458757 559.3018902983738 L 460.45725322172746 562.2297541752721 L 459.74894536575704 565.1393798040923 L 459.02576617218955 568.0343766483016 L 458.28549054892085 570.9189557144717 L 457.52564258407466 573.7979213017767 L 456.74365633457063 576.676340828474 L 455.93723887816685 579.5587993176498 L 455.10445871453896 582.4492178687938 L 454.24374625308724 585.3508526561053 L 453.35389381293675 588.266294928493 L 452.4340556229377 591.1974710095752 L 451.48374782166474 594.1456422976795 L 450.50284845741743 597.1114052658431 L 449.49159748822 600.0946914618124 L 448.4505967818218 603.0947675080434 L 447.3808101156966 606.110235101702 L 446.2835631770431 609.1390310146627 L 445.16054356278494 612.17842709351 L 444.01380077957043 615.2250302595379 L 442.84574624377274 618.27478250875 L 441.65915328148964 621.3229609118588 L 440.45715552783224 624.3641800396565 L 439.24307575462814 627.3926513203212 L 438.0198352690526 630.4030779083956 L 436.78973193912026 633.3909910167241 L 435.55443625205163 636.3527558887507 L 434.3149913142718 639.2855717985173 L 433.07181285141166 642.187472050664 L 431.82468920830667 645.05732398043 L 430.5727813489983 647.8948289536536 L 429.3146228567322 650.7005223667701 L 428.0481199339602 653.4757736468149 L 426.7705514023385 656.2227862514206 L 425.47856870272926 658.9445976688196 L 424.16819589519906 661.645079417842 L 422.834829676514 664.3289370268284 L 421.473338881004 667.0015900888459 L 420.07882372409125 669.6682570203852 L 418.6471874488444 672.3332659615961 L 417.1751712889184 675.000012629697 L 415.6603544685539 677.6709603189748 L 414.10115420257745 680.3476399007844 L 412.4968256964016 683.0306498235501 L 410.84746214602484 685.7196561127635 L 409.1539947380316 688.4133923709857 L 407.41819264959224 691.1096597778456 L 405.6426630484633 693.8053270900417 L 403.83085109298685 696.4963306413398 L 401.98703993209097 699.1776743425746 L 400.11635070529 701.8434296816492 L 398.22468151646905 704.4868107339869 L 396.31788310449224 707.10118738808 L 394.40080055592233 709.6812632255501 L 392.47716721407494 712.2232059229732 L 390.54960467717444 714.7246472541466 L 388.6196227983541 717.1846830900879 L 386.6876196856563 719.6038733990366 L 384.75288170203174 721.984242246452 L 382.81358346534023 724.3292777950151 L 380.8667878483508 726.643932304628 L 378.9084459787404 728.934622132413 L 376.9334039511575 731.2092133711576 L 374.93579675477326 733.476178976754 L 372.9101160092683 735.7423141720652 L 370.851525417762 738.0120614836809 L 368.7558638760325 740.2875040892353 L 366.61964547251563 742.5683658174056 L 364.4400594883051 744.8520111479125 L 362.2149703971533 747.133445211521 L 359.94291786547 749.4053137900394 L 357.62311675232365 751.6579033163197 L 355.25545710944056 753.879140874258 L 352.8405026836406 756.0546035816317 L 350.379354880576 758.1683709115962 L 347.87321103261036 760.2057923207817 L 345.32320789078324 762.1544678346304 L 342.73041919299027 764.004263283717 L 340.09585566398283 765.7473103037478 L 337.4204650153684 767.3780063355609 L 334.7051319456104 768.8930146251269 L 331.9506781400284 770.2912642235482 L 329.1578622707979 771.5739499870594 L 326.32737999695064 772.7445325770279 L 323.45986396437365 773.8087384599512 L 320.55589205713693 774.7744894957357 L 317.6161327872452 775.6506622712627 L 314.64154835616046 776.4453552986602 L 311.6334229784973 777.1656473183756 L 308.5933628908476 777.8175972238689 L 305.52329635177944 778.4062440616132 L 302.42547364183827 778.935607031093 L 299.3024670635468 779.4086854848076 L 296.15717094140433 779.827458928267 L 292.9928016218872 780.1928870199953 L 289.8128974734491 780.5049095715289 L 286.62131888652004 780.7624465474161 L 283.42224827350765 780.9633980652192 L 280.2201870956618 781.1046498304393 L 277.019783934843 781.1823874234663 L 273.82537155790436 781.192942551651 L 270.6408310778758 781.1330413643527 L 267.46959063978426 780.9998068552783 L 264.31462542065225 780.7907588624798 L 261.1784576294995 780.5038140683578 L 258.0631565073415 780.1372859996573 L 254.97033832719035 779.689885027472 L 251.90116639405454 779.1607183672411 L 248.85635104493917 778.5492900787509 L 245.83614964884524 777.8555010661343 L 242.84036660677074 777.0796490778708 L 239.8683533517096 776.2224287067869 L 236.919019355203 775.2849270054817 L 233.99114435397667 774.268499107604 L 231.08396372286714 773.1745350384678 L 228.1972843279146 772.0044135637705 L 225.33148481790298 770.759502073454 L 222.48751562436047 769.4411565817051 L 219.66689896155899 768.0507217269558 L 216.87172882651436 766.589530771882 L 214.10467099898656 765.0589056034055 L 211.36896304147936 763.4601567326921 L 208.66841429924057 761.7945832951525 L 206.0074059002618 760.063473050443 L 203.39082173153062 758.2681185081067 L 200.8232643810722 756.4100001027713 L 198.30825201644575 754.4909738230581 L 195.84814300494847 752.5132888221549 L 193.4441359136136 750.4795874178141 L 191.09626950921145 748.3929050923548 L 188.8034227582486 746.2566704926606 L 186.56331482696837 744.0747054301827 L 184.3725050813507 741.851224880937 L 182.22639308711206 739.5908369855051 L 180.1192186097055 737.2985430490347 L 178.04406161432075 734.979737541239 L 175.99293648998338 732.6401604277211 L 173.9578599759665 730.2853568980096 L 171.93194323403102 727.920124878043 L 169.90949412281586 725.5484632887891 L 167.88601719783878 723.1735720462451 L 165.85821371149677 720.7978520614374 L 163.82398161306597 718.4229052404226 L 161.78241554870135 716.0495344842851 L 159.73380686143713 713.6777436891394 L 157.67964359118648 711.3067377461297 L 155.62261047474163 708.934922541428 L 153.5665888315184 706.5599050330411 L 151.51651151714452 704.1785907523274 L 149.47744732310056 701.7877992789139 L 147.45401051739626 699.3846611528352 L 145.45033232102534 696.966637048322 L 143.47006090796603 694.5315177738025 L 141.51636140518062 692.0774242719002 L 139.59191589261548 689.602807619435 L 137.69892340320135 687.1064490274239 L 135.83909992285308 684.5874598410784 L 134.01367839046964 682.0452815398077 L 132.2234086979344 679.4796857372173 L 130.46855769011475 676.8907741811082 L 128.74890916486234 674.278978753478 L 127.0637638730129 671.6450614705205 L 125.41193996770478 668.9901141607087 L 123.79185635116171 666.3154987503342 L 122.2018773698259 663.6226003039649 L 120.6404664575313 660.912716945583 L 119.10619002345338 658.1870570730329 L 117.59771745210944 655.4467393580203 L 116.11382110335838 652.6927927461131 L 114.6533763124008 649.9261564567412 L 113.21536138977902 647.1476799831962 L 111.79885762137691 644.3581230926314 L 110.40304926842026 641.558155826062 L 109.02722356747631 638.7483584983655 L 107.67077073045418 635.929221698281 L 106.33318394460456 633.1011462884092 L 105.01405937251978 630.2644434052128 L 103.71309614566907 627.4193344666996 L 102.43008948013657 624.5659593540555 L 101.16488844361757 621.7044266036507 L 99.91736936161585 618.8348450125676 L 98.68743458051509 615.9573251086342 L 97.47501246757876 613.0719791504231 L 96.28005741095018 610.1789211272525 L 95.1025498196525 607.2782667591861 L 93.94249612358873 604.370133497033 L 92.79992877354172 601.4546405223473 L 91.67490624117416 598.5319087474288 L 90.56751301902855 595.6020608153226 L 89.4778596205273 592.6652210998187 L 88.40608257997259 589.7215157054533 L 87.35234445254645 586.7710724675067 L 86.31683381431075 583.8140209520058 L 85.29976526220726 580.8504924557218 L 84.30137941405751 577.8806200061721 L 83.32194231688217 574.9045383450988 L 82.36172782921153 571.9223834365774 L 81.42098366983926 568.9342915190846 L 80.49992448457077 565.9403989119189 L 79.59873182629565 562.9408420146452 L 78.71755415498767 559.935757307094 L 77.85650683770467 556.9252813493621 L 77.01567214858873 553.9095507818117 L 76.19509926886606 550.8887023250714 L 75.39480428684705 547.8628727800357 L 74.61477019792616 544.832199027864 L 73.85494690458215 541.7968180299831 L 73.11525121637781 538.756866828085 L 72.39556684996015 535.7124825441272 L 71.69574442906026 532.6638023803337 L 71.01560148449356 529.6109636191943 L 70.3549224541594 526.5541036234644 L 69.71345868304142 523.4933598361656 L 69.09092842320747 520.4288697805855 L 68.4870168338094 517.3607710602773 L 67.90137598108336 514.2892013590605 L 67.33362483834956 511.21429844101993 L 66.78334928601241 508.1362001505065 L 66.25010211156047 505.0550444121376 L 65.73340300956646 501.9709692307961 L 65.23273858168723 498.88411269163066 L 64.7475623366638 495.7946129600553 L 64.27729469032144 492.7026082817518 L 63.82132296556941 489.608236982666 L 63.3790013924012 486.5116374690102 L 62.94965110789451 483.41294822726286 L 62.53256015621116 480.31230782416844 L 62.12698348859707 477.2098549067367 L 61.732142963382415 474.1057282022439 L 61.34722734598142 471.0000665182316 L 60.97139230890749 467.893008742507 L 60.603766976051716 464.78469338524934 L 60.243518007196535 461.675254095124 L 59.889908272208196 458.5648155539469 L 59.542301586094425 455.4534931453806 L 59.20016270900459 452.3413929549342 L 58.863057346229574 449.2286117699631 L 58.53065214820174 446.11523707966904 L 58.2027147104951 443.00134707510097 L 57.87911357382513 439.8870106491534 L 57.55981822404886 436.7722873965677 L 57.24489909216495 433.6572276139325 L 56.934527554313476 430.54187229968153 L 56.62897593177614 427.426253154096 L 56.328617490976185 424.3103925793033 L 56.033926443478364 421.1943036792773 L 55.745477945989 418.0779902598385 L 55.46394810035599 414.96144682865383 L 55.190113953568726 411.8446585952366 L 54.924853497758136 408.72760147094664 L 54.66914567019672 405.6102420689904 L 54.42407035329857 402.49253770442084 L 54.19080837461922 399.37443639413715 L 53.97064150685585 396.2558768568854 L 53.764952467847124 393.1367885132579 L 53.57522492057324 390.0170914856933 L 53.403043473156 386.89669659847726 L 53.25009367885871 383.7755053777414 L 53.11816203608622 380.6534100514641 L 53.009135988384934 377.5302935494701 L 52.925000137943734 374.4060315388703 L 52.86776646379434 371.28052993539137 L 52.839373926736066 368.15377887092853 L 52.841673946616275 365.02586050025786 L 52.876430396262045 361.89694900429913 L 52.94531960148027 358.76731059011576 L 53.049930341057554 355.6373034909152 L 53.19176384676007 352.5073779660473 L 53.37223380333395 349.3780763010064 L 53.59266634850488 346.2500328074302 L 53.85430007297839 343.1239738230999 L 54.15828602043964 340.0007177119401 L 54.50568768755359 336.8811748640192 L 54.89748102396484 333.7663476955489 L 55.334560205369385 330.65733111524395 L 55.817878137730574 327.55532387450614 L 56.34868722933804 324.46164801742844 L 56.92858233398532 321.3777523498208 L 57.55950081724125 318.3052124445654 L 58.243722556450095 315.2457306416151 L 58.98386994073136 312.2011360479947 L 59.782907870979905 309.17338453780025 L 60.644143759865955 306.1645587521996 L 61.571227531834936 303.1768680994314 L 62.56815162310776 300.21264875480614 L 63.63924614374968 297.2743646783768 L 64.78894558819734 294.3646566879739 L 66.02121133144611 291.4864639386038 L 67.33937643609276 288.6430565676828 L 68.74614448426162 285.83803594074425 L 70.2435895776048 283.075334651439 L 71.83315633730204 280.3592165215344 L 73.51565990406084 277.69427660091566 L 75.2912859381164 275.0854411675847 L 77.15959061923154 272.5379677276607 L 79.1195006466968 270.0574450153801 L 81.16931474566292 267.64978783340877 L 83.30678473855518 265.3209593564061 L 85.52932683748243 263.0762473845677 L 87.83408158043603 260.9200590422979 L 90.21791435909873 258.85591897029235 L 92.6774154188444 256.88646932553627 L 95.20889985873806 255.01346978130573 L 97.80840763153604 253.23779752716717 L 100.47170354368576 251.55944726897766 L 103.19427725532596 249.97753122888452 L 105.97134328028649 248.49027914532562 L 108.79784098608836 247.09503827302933 L 111.66845314693133 245.78830139761018 L 114.57785798532743 244.5660874127957 L 117.52102336753617 243.42438554895026 L 120.49323954450693 242.35920481116477 L 123.49011915250757 241.3665739802063 L 126.50759721312453 240.4425416125182 L 129.5419311332627 239.58317604021977 L 132.5897007051455 238.78456537110662 L 135.64780810631504 238.04281748865048 L 138.71347789963178 237.35406005199926 L 141.78425703327488 236.71444049597704 L 144.85801484074187 236.120126031084 L 147.932943040849 235.56730364349647 L 151.0075557377309 235.05218009506694 L 154.08068942084088 234.57098192332418 L 157.15150296495065 234.11995544147294 L 160.21947763015055 233.69536673839437 L 163.2844170618494 233.29350167864547 L 166.34644729077465 232.91066590245956 L 169.40601673297218 232.54318482574615 L 172.46389618980643 232.1874036400908 L 175.52117884796021 231.83968731275547 L 178.57928027943555 231.49642058667794 L 181.63993844155215 231.1540079804723 L 184.70521367694877 230.80887378842894 L 187.7774887135825 230.45746208051412 L 190.85946866472904 230.09623670237056 L 193.9541810289826 229.72168127531694 L 197.06497569025603 229.3302991963482 L 200.1955249177804 228.91861363813513 L 203.34982336610588 228.48316754902538 L 206.5321880751006 228.02052365304192 L 209.7472584699516 227.52726444988446 L 212.99999636116445 226.99999221492862 Z" stroke="white" fill="white" stroke-width="1" />
</svg>